<?xml version="1.0" encoding="utf-8"?>
<!-- Generator: Adobe Illustrator 21.1.0, SVG Export Plug-In . SVG Version: 6.00 Build 0)  -->
<svg version="1.1" id="Layer_1" xmlns="http://www.w3.org/2000/svg" xmlns:xlink="http://www.w3.org/1999/xlink" x="0px" y="0px"
	 width="512px" height="512px" viewBox="0 0 512 512" style="enable-background:new 0 0 512 512;" xml:space="preserve">
<style type="text/css">
	.st0{fill:#71E2EF;}
	.st1{fill:#38C6D9;}
	.st2{fill:#32BEA6;}
	.st3{opacity:0.2;}
	.st4{opacity:0.25;}
	.st5{fill:#FFFFFF;}
</style>
<circle class="st0" cx="256" cy="256" r="256"/>
<path class="st1" d="M512,256c0-16.3-1.5-32.2-4.4-47.6c-0.2,0-0.4,0-0.6,0.1c0.2-0.2,0.4-0.3,0.5-0.4c0-0.1,0-0.2-0.1-0.3
	c-0.2,0-0.4,0.1-0.1-0.3c0-0.2-0.1-0.4-0.1-0.6c-1.3,0-0.5-0.1-2.3-1.2v-0.4v-0.1v-0.4c-0.5-0.4-1.2-0.6-2-0.4
	c0.2-0.4,0.6-0.7,1-0.9c-3.8,0.1-1.6,0.2-1-0.8c-0.9-0.8-1.6-1.6-3-1.2c2.2-1.8-1.4,0.3,1-1.7c-2.3,0.1-1,0-3-1.2v-0.4v-0.1v-0.4
	c-0.5-0.4-1.2-0.6-2-0.4c0.2-0.4,0.6-0.7,1-0.9c-3.8,0.1-1.6,0.2-1-0.8c-0.9-0.8-1.6-1.6-3-1.2c2.2-1.8-1.4,0.3,1-1.7
	c-2.3,0.1-1,0-3-1.2v-0.4V191v-0.4c-0.5-0.4-1.2-0.6-2-0.4c0.2-0.4,0.6-0.7,1-0.9c-3.8,0.1-1.6,0.2-1-0.8c-0.9-0.8-1.6-1.6-3-1.2
	c2.2-1.8-1.4,0.3,1-1.7c-2.3,0.1-1,0-3-1.2V184v-0.1v-0.4c-0.5-0.4-1.2-0.6-2-0.4c0.2-0.4,0.6-0.7,1-0.9c-3.8,0.1-1.6,0.2-1-0.8
	c-1.7-1.4-0.8-1.3-3-1.2c3.2-2.6-2.2,0.9,1-1.7c-2.2,0.1-1.3,0.2-3-1.2c0.6-1,2.8-0.9-1-0.8c0.4-0.2,0.8-0.5,1-0.9
	c-0.8,0.2-1.5,0-2-0.4v-0.4v-0.1v-0.4c-2.1-1.1-0.7-1.2-3-1.2c3.2-2.6-2.2,0.9,1-1.7c-2.2,0.1-1.3,0.2-3-1.2c0.6-1,2.8-0.9-1-0.8
	c0.4-0.2,0.8-0.5,1-0.9c-0.8,0.2-1.5,0-2-0.4v-0.4v-0.1v-0.4c-2.1-1.1-0.7-1.2-3-1.2c3.2-2.6-2.2,0.9,1-1.7c-2.2,0.1-1.3,0.2-3-1.2
	c0.6-1,2.8-0.9-1-0.8c0.4-0.2,0.8-0.5,1-0.9c-0.8,0.2-1.5,0-2-0.4v-0.4v-0.1v-0.4c-2.1-1.1-0.7-1.2-3-1.2c3.2-2.6-2.2,0.9,1-1.7
	c-2.2,0.1-1.3,0.2-3-1.2c0.6-1,2.8-0.9-1-0.8c0.4-0.2,0.8-0.5,1-0.9c-0.8,0.2-1.5,0-2-0.4v-0.4v-0.1V153c-2.1-1.1-0.7-1.2-3-1.2
	c3.2-2.6-2.2,0.9,1-1.7c-2.2,0.1-1.3,0.2-3-1.2c0.6-1,2.8-0.9-1-0.8c0.4-0.2,0.8-0.5,1-0.9c-0.8,0.2-1.5,0-2-0.4v-0.4v-0.1v-0.4
	c-2.1-1.1-0.7-1.2-3-1.2c3.2-2.6-2.2,0.9,1-1.7c-2.2,0.1-1.3,0.2-3-1.2c0.6-1,2.8-0.9-1-0.8c0.4-0.2,0.8-0.5,1-0.9
	c-0.8,0.2-1.5,0-2-0.4v-0.4v-0.1v-0.4c-2.1-1.1-0.7-1.2-3-1.2c3.2-2.6-2.2,0.9,1-1.7c-2.2,0.1-1.3,0.2-3-1.2c0.6-1,2.8-0.9-1-0.8
	c0.4-0.2,0.8-0.5,1-0.9c-0.8,0.2-1.5,0-2-0.4v-0.4v-0.1v-0.4c-2.1-1.1-0.7-1.2-3-1.2c3.2-2.6-2.2,0.9,1-1.7c-2.2,0.1-1.3,0.2-3-1.2
	c0.6-1,2.8-0.9-1-0.8c0.4-0.2,0.8-0.5,1-0.9c-0.8,0.2-1.5,0-2-0.4v-0.4V125v-0.4c-2.1-1.1-0.7-1.2-3-1.2c3.2-2.6-2.2,0.9,1-1.7
	c-2.2,0.1-1.3,0.2-3-1.2c0.6-1,2.8-0.9-1-0.8c0.4-0.2,0.8-0.5,1-0.9c-0.8,0.2-1.5,0-2-0.4V118v-0.1v-0.4c-2.1-1.1-0.7-1.2-3-1.2
	c3.2-2.6-2.2,0.9,1-1.7c-2.1,0.1-1.3,0.2-2.8-1.1c0.2-0.1,0.4-0.5,0.8-1c-4.9,0.1-1,0.3-1-0.8c-54.8,7.1-117.3-6.7-156.5-47.8
	C218.3,106.3,155.9,120.1,101,113c0,49.6-0.2,99.1-0.7,148.7c-0.3,22.8,2.2,44.8,12.7,65.4c9.2,18,22.7,33.5,36.6,48
	c44.2,45.8,89.4,90.6,134.7,135.4C412.4,496.4,512,387.8,512,256z"/>
<g>
	<path class="st2" d="M257,65.2c-58.6,61.6-156,47.7-156,47.7s0,68.6,0,166.9s156,166.9,156,166.9s156-68.6,156-166.9
		s0-166.9,0-166.9S315.6,126.8,257,65.2z"/>
	<g class="st3">
		<path d="M257,120.1c-41.7,43.9-111.1,34-111.1,34s0,48.8,0,118.9S257,391.9,257,391.9S368.1,343,368.1,273s0-118.9,0-118.9
			S298.7,164,257,120.1z"/>
	</g>
	<g class="st4">
		<path class="st5" d="M257,65.2c-58.6,61.6-156,47.7-156,47.7v125.6L413,140v-27.1C413,112.9,315.6,126.8,257,65.2z"/>
	</g>
	<path class="st5" d="M245,316.4v-31.8h-29.7V273H245v-12.9h-29.7v-11.6h23.8l-31.6-55.8h25.3l16,34.4c3.4,7,5.5,12.9,8,19h0.4
		c2.3-5.7,4.8-12.4,8-19.4l16.6-34.1h24.7l-33.3,55.8h23.6V260h-29.9v13h29.9v11.6h-29.9v31.8H245L245,316.4z"/>
</g>
</svg>
